<?xml version="1.0" encoding="utf-8"?>
<!-- Generator: Adobe Illustrator 24.0.2, SVG Export Plug-In . SVG Version: 6.00 Build 0)  -->
<svg version="1.1" id="Ebene_1" xmlns="http://www.w3.org/2000/svg" xmlns:xlink="http://www.w3.org/1999/xlink" x="0px" y="0px"
	 viewBox="0 0 1536 1006" style="enable-background:new 0 0 1536 1006;" xml:space="preserve">
<style type="text/css">
	.st0{opacity:0.66;}
	.st1{fill:#22B573;stroke:#A155FF;stroke-linecap:round;stroke-miterlimit:10;}
	.st2{fill:none;stroke:#A155FF;stroke-miterlimit:10;}
	.st3{fill:none;stroke:#A155FF;stroke-width:1;stroke-miterlimit:10.0004;}
	.st4{fill:#E1D32E;}
	.st5{opacity:0.28;fill:#B58500;enable-background:new    ;}
</style>
<g class="st0">
	<rect x="309.6" y="159.2" class="st1" width="48.1" height="291.3"/>
	<rect x="309.6" y="745.1" class="st1" width="892.4" height="55"/>
	<rect x="1202" y="449.4" class="st1" width="48.2" height="350"/>
	<rect x="1202" y="438.9" class="st1" width="48.2" height="350"/>
	<rect x="1202" y="460.3" class="st1" width="48.2" height="316.5"/>
	<rect x="1202" y="457.9" class="st1" width="48.2" height="314.1"/>
	<rect x="1202" y="477.2" class="st1" width="48.2" height="282.6"/>
	<rect x="1202.6" y="453.5" class="st1" width="47" height="291.3"/>
	<rect x="309.6" y="450.2" class="st1" width="892.4" height="55"/>
	<rect x="272.5" y="158.9" class="st1" width="940.6" height="55"/>
	<rect x="423.3" y="745.2" class="st2" width="20.8" height="54.9"/>
	<rect x="731.4" y="158.9" class="st2" width="20.8" height="55"/>
	<rect x="710.3" y="158.9" class="st2" width="20.8" height="55"/>
	<rect x="752.9" y="158.9" class="st2" width="20.8" height="55"/>
	<rect x="773.3" y="158.9" class="st2" width="20.8" height="55"/>
	<rect x="812.9" y="159.1" class="st2" width="20.8" height="55"/>
	<rect x="1017.6" y="158.9" class="st2" width="20.8" height="55"/>
	<rect x="1037.8" y="158.9" class="st2" width="20.8" height="55"/>
	<rect x="1058.7" y="158.9" class="st2" width="20.8" height="55"/>
	<rect x="1078.7" y="158.9" class="st2" width="20.8" height="55"/>
	<rect x="1099.5" y="158.9" class="st2" width="20.8" height="55"/>
	<rect x="443.5" y="745.2" class="st2" width="20.8" height="54.9"/>
	<rect x="547.2" y="449.8" class="st2" width="20.8" height="54.9"/>
	<rect x="464" y="745" class="st2" width="20.8" height="55"/>
	<rect x="484.4" y="745" class="st2" width="20.8" height="55"/>
	<rect x="504.9" y="745" class="st2" width="20.8" height="55"/>
	<rect x="525.4" y="745" class="st2" width="20.8" height="55"/>
	<polygon class="st3" points="545.7,800 546.1,745 566.9,745 566.5,800.1 	"/>
	<g>
		<rect x="730.2" y="745.3" class="st2" width="20.8" height="54.9"/>
		<rect x="750.6" y="745.3" class="st2" width="20.8" height="54.9"/>
		<rect x="771.1" y="745.3" class="st2" width="20.8" height="54.9"/>
		<rect x="791.6" y="745.3" class="st2" width="20.8" height="54.9"/>
		<rect x="812.1" y="745.3" class="st2" width="20.8" height="54.9"/>
		<rect x="833.8" y="745.3" class="st2" width="20.8" height="54.9"/>
	</g>
	<g>
		<rect x="422.9" y="158.6" class="st2" width="20.8" height="54.9"/>
		<rect x="443.4" y="158.6" class="st2" width="20.8" height="54.9"/>
		<rect x="463.9" y="158.6" class="st2" width="20.8" height="54.9"/>
		<rect x="484.4" y="158.6" class="st2" width="20.8" height="54.9"/>
		<rect x="504.9" y="158.6" class="st2" width="20.8" height="54.9"/>
		<rect x="526.6" y="158.6" class="st2" width="20.8" height="54.9"/>
	</g>
	<g>
		<rect x="424.2" y="449.9" class="st2" width="20.8" height="54.9"/>
		<rect x="444.7" y="449.9" class="st2" width="20.8" height="54.9"/>
		<rect x="465.2" y="449.9" class="st2" width="20.8" height="54.9"/>
		<rect x="485.7" y="449.9" class="st2" width="20.8" height="54.9"/>
		<rect x="506.2" y="449.9" class="st2" width="20.8" height="54.9"/>
		<rect x="527.9" y="449.9" class="st2" width="20.8" height="54.9"/>
	</g>
	<rect x="730.2" y="449.9" class="st2" width="20.8" height="54.9"/>
	<rect x="750.6" y="449.9" class="st2" width="20.8" height="54.9"/>
	<rect x="771.1" y="449.9" class="st2" width="20.8" height="54.9"/>
	<rect x="791.6" y="449.9" class="st2" width="20.8" height="54.9"/>
	<rect x="812.1" y="449.9" class="st2" width="20.8" height="54.9"/>
	<rect x="833.8" y="449.9" class="st2" width="20.8" height="54.9"/>
	<rect x="1018.2" y="449.9" class="st2" width="20.8" height="54.9"/>
	<rect x="1038.6" y="449.9" class="st2" width="20.8" height="54.9"/>
	<rect x="1059.1" y="449.9" class="st2" width="20.8" height="54.9"/>
	<rect x="1079.6" y="449.9" class="st2" width="20.8" height="54.9"/>
	<rect x="1100.1" y="449.9" class="st2" width="20.8" height="54.9"/>
	<rect x="1121.8" y="449.9" class="st2" width="20.8" height="54.9"/>
	<g>
		<rect x="1016.7" y="745.1" class="st2" width="20.8" height="54.9"/>
		<rect x="1037.2" y="745.1" class="st2" width="20.8" height="54.9"/>
		<rect x="1057.7" y="745.1" class="st2" width="20.8" height="54.9"/>
		<rect x="1078.2" y="745.1" class="st2" width="20.8" height="54.9"/>
		<rect x="1098.6" y="745.1" class="st2" width="20.8" height="54.9"/>
		<rect x="1120.4" y="745.1" class="st2" width="20.8" height="54.9"/>
	</g>
	<rect x="1202.2" y="686.6" class="st2" width="48.6" height="12.9"/>
	<rect x="1202.2" y="660.8" class="st2" width="48.6" height="12.9"/>
	<rect x="1202.2" y="635" class="st2" width="48.6" height="12.9"/>
	<rect x="1202.2" y="609.2" class="st2" width="48.6" height="12.9"/>
	<rect x="1202.2" y="583.3" class="st2" width="48.6" height="12.9"/>
	<rect x="1202.2" y="556.7" class="st2" width="48.6" height="12.9"/>
	<g>
		<rect x="1202.2" y="699.6" class="st2" width="48.6" height="12.9"/>
		<rect x="1202.2" y="673.7" class="st2" width="48.6" height="12.9"/>
		<rect x="1202.2" y="647.9" class="st2" width="48.6" height="12.9"/>
		<rect x="1202.2" y="622.1" class="st2" width="48.6" height="12.9"/>
		<rect x="1202.2" y="596.3" class="st2" width="48.6" height="12.9"/>
		<rect x="1202.2" y="569.6" class="st2" width="48.6" height="12.9"/>
		<rect x="1202.2" y="543.8" class="st2" width="48.6" height="12.9"/>
		<rect x="1202.2" y="531.7" class="st2" width="48.6" height="12.9"/>
	</g>
	<g>
		<rect x="309.7" y="414.3" class="st2" width="47.1" height="12.9"/>
		<rect x="309.6" y="388.5" class="st2" width="47.1" height="12.9"/>
		<rect x="309.6" y="362.6" class="st2" width="47.1" height="12.9"/>
		<rect x="309.6" y="336.8" class="st2" width="47.1" height="12.9"/>
		<rect x="309.5" y="311" class="st2" width="47.1" height="12.9"/>
		<rect x="309.5" y="284.3" class="st2" width="47.1" height="12.9"/>
		<rect x="309.4" y="258.5" class="st2" width="47.1" height="12.9"/>
		<rect x="309.4" y="246.4" class="st2" width="47.1" height="12.9"/>
	</g>
	<rect x="309.4" y="233.9" class="st2" width="47.4" height="12.9"/>
	<rect x="547" y="158.8" class="st2" width="20.8" height="54.9"/>
	<rect x="792.5" y="159.2" class="st2" width="20.8" height="55"/>
	<rect x="833.5" y="159.2" class="st2" width="20.8" height="55"/>
	<rect x="1120.5" y="159" class="st2" width="20.8" height="55"/>
	<ellipse class="st4" cx="937.9" cy="477.2" rx="81.9" ry="51.6"/>
	<ellipse class="st4" cx="1226.6" cy="477.2" rx="81.9" ry="51.6"/>
	<ellipse class="st4" cx="655.5" cy="186" rx="81.9" ry="51.6"/>
	<ellipse class="st4" cx="341.4" cy="763.7" rx="81.9" ry="51.6"/>
	<ellipse class="st4" cx="655.5" cy="763.7" rx="81.9" ry="51.6"/>
	<ellipse class="st4" cx="937.9" cy="763.7" rx="81.9" ry="51.6"/>
	<ellipse class="st4" cx="1223.6" cy="763.7" rx="81.9" ry="51.6"/>
	<ellipse class="st4" cx="655.5" cy="477.2" rx="81.9" ry="51.6"/>
	<ellipse class="st4" cx="937.9" cy="186" rx="81.9" ry="51.6"/>
	<ellipse class="st4" cx="1223.6" cy="186" rx="81.9" ry="51.6"/>
	<ellipse class="st4" cx="341.4" cy="186" rx="81.9" ry="51.6"/>
	<ellipse class="st4" cx="341.4" cy="477.2" rx="81.9" ry="51.6"/>
</g>
<rect x="227.5" y="76.2" class="st5" width="32.4" height="32.6"/>
<rect x="227.5" y="141.9" class="st5" width="32.4" height="32.6"/>
<rect x="227.5" y="207.9" class="st5" width="32.4" height="32.6"/>
<rect x="227.1" y="273.4" class="st5" width="32.4" height="32.6"/>
<rect x="227.1" y="339.6" class="st5" width="32.4" height="32.6"/>
<rect x="227.1" y="404.6" class="st5" width="32.4" height="32.6"/>
<rect x="227.1" y="471.1" class="st5" width="32.4" height="32.6"/>
<rect x="227.1" y="536.3" class="st5" width="32.4" height="32.6"/>
<rect x="227.1" y="602" class="st5" width="32.4" height="32.6"/>
<rect x="227.1" y="668.1" class="st5" width="32.4" height="32.6"/>
<rect x="227.1" y="733.7" class="st5" width="32.4" height="32.6"/>
<rect x="227.1" y="799.5" class="st5" width="32.4" height="32.6"/>
<rect x="227.1" y="864.9" class="st5" width="32.4" height="32.6"/>
<rect x="227.1" y="930.7" class="st5" width="32.4" height="32.6"/>
<rect x="227.5" y="10.5" class="st5" width="32.4" height="32.6"/>
<rect x="293.1" y="75.9" class="st5" width="32.4" height="32.6"/>
<rect x="293.1" y="141.7" class="st5" width="32.4" height="32.6"/>
<rect x="293.1" y="207.6" class="st5" width="32.4" height="32.6"/>
<rect x="292.7" y="273.1" class="st5" width="32.4" height="32.6"/>
<rect x="292.7" y="339.3" class="st5" width="32.4" height="32.6"/>
<rect x="292.7" y="404.3" class="st5" width="32.4" height="32.6"/>
<rect x="292.7" y="470.8" class="st5" width="32.4" height="32.6"/>
<rect x="292.7" y="536" class="st5" width="32.4" height="32.6"/>
<rect x="292.7" y="601.8" class="st5" width="32.4" height="32.6"/>
<rect x="292.7" y="667.8" class="st5" width="32.4" height="32.6"/>
<rect x="292.7" y="733.4" class="st5" width="32.4" height="32.6"/>
<rect x="292.7" y="799.2" class="st5" width="32.4" height="32.6"/>
<rect x="292.7" y="864.7" class="st5" width="32.4" height="32.6"/>
<rect x="292.7" y="930.4" class="st5" width="32.4" height="32.6"/>
<rect x="293.1" y="10.2" class="st5" width="32.4" height="32.6"/>
<rect x="358.6" y="75.9" class="st5" width="32.4" height="32.6"/>
<rect x="358.6" y="141.7" class="st5" width="32.4" height="32.6"/>
<rect x="358.6" y="207.6" class="st5" width="32.4" height="32.6"/>
<rect x="358.2" y="273.1" class="st5" width="32.4" height="32.6"/>
<rect x="358.2" y="339.3" class="st5" width="32.4" height="32.6"/>
<rect x="358.2" y="404.3" class="st5" width="32.4" height="32.6"/>
<rect x="358.2" y="470.8" class="st5" width="32.4" height="32.6"/>
<rect x="358.2" y="536" class="st5" width="32.4" height="32.6"/>
<rect x="358.2" y="601.8" class="st5" width="32.4" height="32.6"/>
<rect x="358.2" y="667.8" class="st5" width="32.4" height="32.6"/>
<rect x="358.2" y="733.4" class="st5" width="32.4" height="32.6"/>
<rect x="358.2" y="799.2" class="st5" width="32.4" height="32.6"/>
<rect x="358.2" y="864.7" class="st5" width="32.4" height="32.6"/>
<rect x="358.2" y="930.4" class="st5" width="32.4" height="32.6"/>
<rect x="358.6" y="10.2" class="st5" width="32.4" height="32.6"/>
<rect x="424.2" y="76.4" class="st5" width="32.4" height="32.6"/>
<rect x="424.2" y="142.2" class="st5" width="32.4" height="32.6"/>
<rect x="424.2" y="208.1" class="st5" width="32.4" height="32.6"/>
<rect x="423.8" y="273.6" class="st5" width="32.4" height="32.6"/>
<rect x="423.8" y="339.8" class="st5" width="32.4" height="32.6"/>
<rect x="423.8" y="404.8" class="st5" width="32.4" height="32.6"/>
<rect x="423.8" y="471.3" class="st5" width="32.4" height="32.6"/>
<rect x="423.8" y="536.5" class="st5" width="32.4" height="32.6"/>
<rect x="423.8" y="602.3" class="st5" width="32.4" height="32.6"/>
<rect x="423.8" y="668.3" class="st5" width="32.4" height="32.6"/>
<rect x="423.8" y="733.9" class="st5" width="32.4" height="32.6"/>
<rect x="423.8" y="799.7" class="st5" width="32.4" height="32.6"/>
<rect x="423.8" y="865.2" class="st5" width="32.4" height="32.6"/>
<rect x="423.8" y="930.9" class="st5" width="32.4" height="32.6"/>
<rect x="424.2" y="10.7" class="st5" width="32.4" height="32.6"/>
<rect x="489.8" y="76.4" class="st5" width="32.4" height="32.6"/>
<rect x="489.8" y="142.2" class="st5" width="32.4" height="32.6"/>
<rect x="489.8" y="208.1" class="st5" width="32.4" height="32.6"/>
<rect x="489.4" y="273.6" class="st5" width="32.4" height="32.6"/>
<rect x="489.4" y="339.8" class="st5" width="32.4" height="32.6"/>
<rect x="489.4" y="404.8" class="st5" width="32.4" height="32.6"/>
<rect x="489.4" y="471.3" class="st5" width="32.4" height="32.6"/>
<rect x="489.4" y="536.5" class="st5" width="32.4" height="32.6"/>
<rect x="489.4" y="602.3" class="st5" width="32.4" height="32.6"/>
<rect x="489.4" y="668.3" class="st5" width="32.4" height="32.6"/>
<rect x="489.4" y="733.9" class="st5" width="32.4" height="32.6"/>
<rect x="489.4" y="799.7" class="st5" width="32.4" height="32.6"/>
<rect x="489.4" y="865.2" class="st5" width="32.4" height="32.6"/>
<rect x="489.4" y="930.9" class="st5" width="32.4" height="32.6"/>
<rect x="489.8" y="10.7" class="st5" width="32.4" height="32.6"/>
<rect x="555.3" y="75.9" class="st5" width="32.4" height="32.6"/>
<rect x="555.3" y="141.7" class="st5" width="32.4" height="32.6"/>
<rect x="555.3" y="207.6" class="st5" width="32.4" height="32.6"/>
<rect x="554.9" y="273.1" class="st5" width="32.4" height="32.6"/>
<rect x="554.9" y="339.3" class="st5" width="32.4" height="32.6"/>
<rect x="554.9" y="404.3" class="st5" width="32.4" height="32.6"/>
<rect x="554.9" y="470.8" class="st5" width="32.4" height="32.6"/>
<rect x="554.9" y="536" class="st5" width="32.4" height="32.6"/>
<rect x="554.9" y="601.8" class="st5" width="32.4" height="32.6"/>
<rect x="554.9" y="667.8" class="st5" width="32.4" height="32.6"/>
<rect x="554.9" y="733.4" class="st5" width="32.4" height="32.6"/>
<rect x="554.9" y="799.2" class="st5" width="32.4" height="32.6"/>
<rect x="554.9" y="864.7" class="st5" width="32.4" height="32.6"/>
<rect x="554.9" y="930.4" class="st5" width="32.4" height="32.6"/>
<rect x="555.3" y="10.2" class="st5" width="32.4" height="32.6"/>
<rect x="620.9" y="75.9" class="st5" width="32.4" height="32.6"/>
<rect x="620.9" y="141.7" class="st5" width="32.4" height="32.6"/>
<rect x="620.9" y="207.6" class="st5" width="32.4" height="32.6"/>
<rect x="620.5" y="273.1" class="st5" width="32.4" height="32.6"/>
<rect x="620.5" y="339.3" class="st5" width="32.4" height="32.6"/>
<rect x="620.5" y="404.3" class="st5" width="32.4" height="32.6"/>
<rect x="620.5" y="470.8" class="st5" width="32.4" height="32.6"/>
<rect x="620.5" y="536" class="st5" width="32.4" height="32.6"/>
<rect x="620.5" y="601.8" class="st5" width="32.4" height="32.6"/>
<rect x="620.5" y="667.8" class="st5" width="32.4" height="32.6"/>
<rect x="620.5" y="733.4" class="st5" width="32.4" height="32.6"/>
<rect x="620.5" y="799.2" class="st5" width="32.4" height="32.6"/>
<rect x="620.5" y="864.7" class="st5" width="32.4" height="32.6"/>
<rect x="620.5" y="930.4" class="st5" width="32.4" height="32.6"/>
<rect x="620.9" y="10.2" class="st5" width="32.4" height="32.6"/>
<rect x="686.5" y="75.9" class="st5" width="32.4" height="32.6"/>
<rect x="686.5" y="141.7" class="st5" width="32.4" height="32.6"/>
<rect x="686.5" y="207.6" class="st5" width="32.4" height="32.6"/>
<rect x="686" y="273.1" class="st5" width="32.4" height="32.6"/>
<rect x="686" y="339.3" class="st5" width="32.4" height="32.6"/>
<rect x="686" y="404.3" class="st5" width="32.4" height="32.6"/>
<rect x="686" y="470.8" class="st5" width="32.4" height="32.6"/>
<rect x="686" y="536" class="st5" width="32.4" height="32.6"/>
<rect x="686" y="601.8" class="st5" width="32.4" height="32.6"/>
<rect x="686" y="667.8" class="st5" width="32.4" height="32.6"/>
<rect x="686" y="733.4" class="st5" width="32.4" height="32.6"/>
<rect x="686" y="799.2" class="st5" width="32.4" height="32.6"/>
<rect x="686" y="864.7" class="st5" width="32.4" height="32.6"/>
<rect x="686" y="930.4" class="st5" width="32.4" height="32.6"/>
<rect x="686.5" y="10.2" class="st5" width="32.4" height="32.6"/>
<rect x="752" y="75.9" class="st5" width="32.4" height="32.6"/>
<rect x="752" y="141.7" class="st5" width="32.4" height="32.6"/>
<rect x="752" y="207.6" class="st5" width="32.4" height="32.6"/>
<rect x="751.6" y="273.1" class="st5" width="32.4" height="32.6"/>
<rect x="751.6" y="339.3" class="st5" width="32.4" height="32.6"/>
<rect x="751.6" y="404.3" class="st5" width="32.4" height="32.6"/>
<rect x="751.6" y="470.8" class="st5" width="32.4" height="32.6"/>
<rect x="751.6" y="536" class="st5" width="32.4" height="32.6"/>
<rect x="751.6" y="601.8" class="st5" width="32.4" height="32.6"/>
<rect x="751.6" y="667.8" class="st5" width="32.4" height="32.6"/>
<rect x="751.6" y="733.4" class="st5" width="32.4" height="32.6"/>
<rect x="751.6" y="799.2" class="st5" width="32.4" height="32.6"/>
<rect x="751.6" y="864.7" class="st5" width="32.4" height="32.6"/>
<rect x="751.6" y="930.4" class="st5" width="32.4" height="32.6"/>
<rect x="752" y="10.2" class="st5" width="32.4" height="32.6"/>
<rect x="817.6" y="76.4" class="st5" width="32.4" height="32.6"/>
<rect x="817.6" y="142.2" class="st5" width="32.4" height="32.6"/>
<rect x="817.6" y="208.1" class="st5" width="32.4" height="32.6"/>
<rect x="817.2" y="273.6" class="st5" width="32.4" height="32.6"/>
<rect x="817.2" y="339.8" class="st5" width="32.4" height="32.6"/>
<rect x="817.2" y="404.8" class="st5" width="32.4" height="32.6"/>
<rect x="817.2" y="471.3" class="st5" width="32.4" height="32.6"/>
<rect x="817.2" y="536.5" class="st5" width="32.4" height="32.6"/>
<rect x="817.2" y="602.3" class="st5" width="32.4" height="32.6"/>
<rect x="817.2" y="668.3" class="st5" width="32.4" height="32.6"/>
<rect x="817.2" y="733.9" class="st5" width="32.4" height="32.6"/>
<rect x="817.2" y="799.7" class="st5" width="32.4" height="32.6"/>
<rect x="817.2" y="865.2" class="st5" width="32.4" height="32.6"/>
<rect x="817.2" y="930.9" class="st5" width="32.4" height="32.6"/>
<rect x="817.6" y="10.7" class="st5" width="32.4" height="32.6"/>
<rect x="883.1" y="75.9" class="st5" width="32.4" height="32.6"/>
<rect x="883.1" y="141.7" class="st5" width="32.4" height="32.6"/>
<rect x="883.1" y="207.6" class="st5" width="32.4" height="32.6"/>
<rect x="882.7" y="273.1" class="st5" width="32.4" height="32.6"/>
<rect x="882.7" y="339.3" class="st5" width="32.4" height="32.6"/>
<rect x="882.7" y="404.3" class="st5" width="32.4" height="32.6"/>
<rect x="882.7" y="470.8" class="st5" width="32.4" height="32.6"/>
<rect x="882.7" y="536" class="st5" width="32.4" height="32.6"/>
<rect x="882.7" y="601.8" class="st5" width="32.4" height="32.6"/>
<rect x="882.7" y="667.8" class="st5" width="32.4" height="32.6"/>
<rect x="882.7" y="733.4" class="st5" width="32.4" height="32.6"/>
<rect x="882.7" y="799.2" class="st5" width="32.4" height="32.6"/>
<rect x="882.7" y="864.7" class="st5" width="32.4" height="32.6"/>
<rect x="882.7" y="930.4" class="st5" width="32.4" height="32.6"/>
<rect x="883.1" y="10.2" class="st5" width="32.4" height="32.6"/>
<rect x="948.7" y="76.4" class="st5" width="32.4" height="32.6"/>
<rect x="948.7" y="142.2" class="st5" width="32.4" height="32.6"/>
<rect x="948.7" y="208.1" class="st5" width="32.4" height="32.6"/>
<rect x="948.3" y="273.6" class="st5" width="32.4" height="32.6"/>
<rect x="948.3" y="339.8" class="st5" width="32.4" height="32.6"/>
<rect x="948.3" y="404.8" class="st5" width="32.4" height="32.6"/>
<rect x="948.3" y="471.3" class="st5" width="32.4" height="32.6"/>
<rect x="948.3" y="536.5" class="st5" width="32.4" height="32.6"/>
<rect x="948.3" y="602.3" class="st5" width="32.4" height="32.6"/>
<rect x="948.3" y="668.3" class="st5" width="32.4" height="32.6"/>
<rect x="948.3" y="733.9" class="st5" width="32.4" height="32.6"/>
<rect x="948.3" y="799.7" class="st5" width="32.4" height="32.6"/>
<rect x="948.3" y="865.2" class="st5" width="32.4" height="32.6"/>
<rect x="948.3" y="930.9" class="st5" width="32.4" height="32.6"/>
<rect x="948.7" y="10.7" class="st5" width="32.4" height="32.6"/>
<rect x="1014.3" y="76.4" class="st5" width="32.4" height="32.6"/>
<rect x="1014.3" y="142.2" class="st5" width="32.4" height="32.6"/>
<rect x="1014.3" y="208.1" class="st5" width="32.4" height="32.6"/>
<rect x="1013.9" y="273.6" class="st5" width="32.4" height="32.6"/>
<rect x="1013.9" y="339.8" class="st5" width="32.4" height="32.6"/>
<rect x="1013.9" y="404.8" class="st5" width="32.4" height="32.6"/>
<rect x="1013.9" y="471.3" class="st5" width="32.4" height="32.6"/>
<rect x="1013.9" y="536.5" class="st5" width="32.4" height="32.6"/>
<rect x="1013.9" y="602.3" class="st5" width="32.4" height="32.6"/>
<rect x="1013.9" y="668.3" class="st5" width="32.4" height="32.6"/>
<rect x="1013.9" y="733.9" class="st5" width="32.4" height="32.6"/>
<rect x="1013.9" y="799.7" class="st5" width="32.4" height="32.6"/>
<rect x="1013.9" y="865.2" class="st5" width="32.4" height="32.6"/>
<rect x="1013.9" y="930.9" class="st5" width="32.4" height="32.6"/>
<rect x="1014.3" y="10.7" class="st5" width="32.4" height="32.6"/>
<rect x="1079.8" y="76.4" class="st5" width="32.4" height="32.6"/>
<rect x="1079.8" y="142.2" class="st5" width="32.4" height="32.6"/>
<rect x="1079.8" y="208.1" class="st5" width="32.4" height="32.6"/>
<rect x="1079.4" y="273.6" class="st5" width="32.4" height="32.6"/>
<rect x="1079.4" y="339.8" class="st5" width="32.4" height="32.6"/>
<rect x="1079.4" y="404.8" class="st5" width="32.4" height="32.6"/>
<rect x="1079.4" y="471.3" class="st5" width="32.4" height="32.6"/>
<rect x="1079.4" y="536.5" class="st5" width="32.4" height="32.6"/>
<rect x="1079.4" y="602.3" class="st5" width="32.4" height="32.6"/>
<rect x="1079.4" y="668.3" class="st5" width="32.4" height="32.6"/>
<rect x="1079.4" y="733.9" class="st5" width="32.4" height="32.6"/>
<rect x="1079.4" y="799.7" class="st5" width="32.4" height="32.6"/>
<rect x="1079.4" y="865.2" class="st5" width="32.4" height="32.6"/>
<rect x="1079.4" y="930.9" class="st5" width="32.4" height="32.6"/>
<rect x="1079.8" y="10.7" class="st5" width="32.4" height="32.6"/>
<rect x="1145.4" y="75.9" class="st5" width="32.4" height="32.6"/>
<rect x="1145.4" y="141.7" class="st5" width="32.4" height="32.6"/>
<rect x="1145.4" y="207.6" class="st5" width="32.4" height="32.6"/>
<rect x="1145" y="273.1" class="st5" width="32.4" height="32.6"/>
<rect x="1145" y="339.3" class="st5" width="32.4" height="32.6"/>
<rect x="1145" y="404.3" class="st5" width="32.4" height="32.6"/>
<rect x="1145" y="470.8" class="st5" width="32.4" height="32.6"/>
<rect x="1145" y="536" class="st5" width="32.4" height="32.6"/>
<rect x="1145" y="601.8" class="st5" width="32.4" height="32.6"/>
<rect x="1145" y="667.8" class="st5" width="32.4" height="32.6"/>
<rect x="1145" y="733.4" class="st5" width="32.4" height="32.6"/>
<rect x="1145" y="799.2" class="st5" width="32.4" height="32.6"/>
<rect x="1145" y="864.7" class="st5" width="32.4" height="32.6"/>
<rect x="1145" y="930.4" class="st5" width="32.4" height="32.6"/>
<rect x="1145.4" y="10.2" class="st5" width="32.4" height="32.6"/>
<rect x="1210.9" y="75.9" class="st5" width="32.4" height="32.6"/>
<rect x="1210.9" y="141.7" class="st5" width="32.4" height="32.6"/>
<rect x="1210.9" y="207.6" class="st5" width="32.4" height="32.6"/>
<rect x="1210.5" y="273.1" class="st5" width="32.4" height="32.6"/>
<rect x="1210.5" y="339.3" class="st5" width="32.4" height="32.6"/>
<rect x="1210.5" y="404.3" class="st5" width="32.4" height="32.6"/>
<rect x="1210.5" y="470.8" class="st5" width="32.4" height="32.6"/>
<rect x="1210.5" y="536" class="st5" width="32.4" height="32.6"/>
<rect x="1210.5" y="601.8" class="st5" width="32.4" height="32.6"/>
<rect x="1210.5" y="667.8" class="st5" width="32.4" height="32.6"/>
<rect x="1210.5" y="733.4" class="st5" width="32.4" height="32.6"/>
<rect x="1210.5" y="799.2" class="st5" width="32.4" height="32.6"/>
<rect x="1210.5" y="864.7" class="st5" width="32.4" height="32.6"/>
<rect x="1210.5" y="930.4" class="st5" width="32.4" height="32.6"/>
<rect x="1210.9" y="10.2" class="st5" width="32.4" height="32.6"/>
<rect x="1276.5" y="75.9" class="st5" width="32.4" height="32.6"/>
<rect x="1276.5" y="141.7" class="st5" width="32.4" height="32.6"/>
<rect x="1276.5" y="207.6" class="st5" width="32.4" height="32.6"/>
<rect x="1276.1" y="273.1" class="st5" width="32.4" height="32.6"/>
<rect x="1276.1" y="339.3" class="st5" width="32.4" height="32.6"/>
<rect x="1276.1" y="404.3" class="st5" width="32.4" height="32.6"/>
<rect x="1276.1" y="470.8" class="st5" width="32.4" height="32.6"/>
<rect x="1276.1" y="536" class="st5" width="32.4" height="32.6"/>
<rect x="1276.1" y="601.8" class="st5" width="32.4" height="32.6"/>
<rect x="1276.1" y="667.8" class="st5" width="32.4" height="32.6"/>
<rect x="1276.1" y="733.4" class="st5" width="32.4" height="32.6"/>
<rect x="1276.1" y="799.2" class="st5" width="32.4" height="32.6"/>
<rect x="1276.1" y="864.7" class="st5" width="32.4" height="32.6"/>
<rect x="1276.1" y="930.4" class="st5" width="32.4" height="32.6"/>
<rect x="1276.5" y="10.2" class="st5" width="32.4" height="32.6"/>
<rect x="1342.1" y="75.9" class="st5" width="32.4" height="32.6"/>
<rect x="1342.1" y="141.7" class="st5" width="32.4" height="32.6"/>
<rect x="1342.1" y="207.6" class="st5" width="32.4" height="32.6"/>
<rect x="1341.7" y="273.1" class="st5" width="32.4" height="32.6"/>
<rect x="1341.7" y="339.3" class="st5" width="32.4" height="32.6"/>
<rect x="1341.7" y="404.3" class="st5" width="32.4" height="32.6"/>
<rect x="1341.7" y="470.8" class="st5" width="32.4" height="32.6"/>
<rect x="1341.7" y="536" class="st5" width="32.4" height="32.6"/>
<rect x="1341.7" y="601.8" class="st5" width="32.4" height="32.6"/>
<rect x="1341.7" y="667.8" class="st5" width="32.4" height="32.6"/>
<rect x="1341.7" y="733.4" class="st5" width="32.4" height="32.6"/>
<rect x="1341.7" y="799.2" class="st5" width="32.4" height="32.6"/>
<rect x="1341.7" y="864.7" class="st5" width="32.4" height="32.6"/>
<rect x="1341.7" y="930.4" class="st5" width="32.4" height="32.6"/>
<rect x="1342.1" y="10.2" class="st5" width="32.4" height="32.6"/>
<rect x="1407.6" y="76.1" class="st5" width="32.4" height="32.6"/>
<rect x="1407.6" y="141.9" class="st5" width="32.4" height="32.6"/>
<rect x="1407.6" y="207.8" class="st5" width="32.4" height="32.6"/>
<rect x="1407.2" y="273.3" class="st5" width="32.4" height="32.6"/>
<rect x="1407.2" y="339.5" class="st5" width="32.4" height="32.6"/>
<rect x="1407.2" y="404.5" class="st5" width="32.4" height="32.6"/>
<rect x="1407.2" y="471" class="st5" width="32.4" height="32.6"/>
<rect x="1407.2" y="536.2" class="st5" width="32.4" height="32.6"/>
<rect x="1407.2" y="602" class="st5" width="32.4" height="32.6"/>
<rect x="1407.2" y="668" class="st5" width="32.4" height="32.6"/>
<rect x="1407.2" y="733.6" class="st5" width="32.4" height="32.6"/>
<rect x="1407.2" y="799.4" class="st5" width="32.4" height="32.6"/>
<rect x="1407.2" y="864.9" class="st5" width="32.4" height="32.6"/>
<rect x="1407.2" y="930.6" class="st5" width="32.4" height="32.6"/>
<rect x="1407.6" y="10.4" class="st5" width="32.4" height="32.6"/>
<rect x="162" y="75.9" class="st5" width="32.4" height="32.6"/>
<rect x="162" y="141.7" class="st5" width="32.4" height="32.6"/>
<rect x="162" y="207.6" class="st5" width="32.4" height="32.6"/>
<rect x="161.6" y="273.1" class="st5" width="32.4" height="32.6"/>
<rect x="161.6" y="339.3" class="st5" width="32.4" height="32.6"/>
<rect x="161.6" y="404.3" class="st5" width="32.4" height="32.6"/>
<rect x="161.6" y="470.8" class="st5" width="32.4" height="32.6"/>
<rect x="161.6" y="536" class="st5" width="32.4" height="32.6"/>
<rect x="161.6" y="601.8" class="st5" width="32.4" height="32.6"/>
<rect x="161.6" y="667.8" class="st5" width="32.4" height="32.6"/>
<rect x="161.6" y="733.4" class="st5" width="32.4" height="32.6"/>
<rect x="161.6" y="799.2" class="st5" width="32.4" height="32.6"/>
<rect x="161.6" y="864.7" class="st5" width="32.4" height="32.6"/>
<rect x="161.6" y="930.4" class="st5" width="32.4" height="32.6"/>
<rect x="162" y="10.2" class="st5" width="32.4" height="32.6"/>
<rect x="96.4" y="76.4" class="st5" width="32.4" height="32.6"/>
<rect x="96.4" y="142.2" class="st5" width="32.4" height="32.6"/>
<rect x="96.4" y="208.1" class="st5" width="32.4" height="32.6"/>
<rect x="96" y="273.6" class="st5" width="32.4" height="32.6"/>
<rect x="96" y="339.8" class="st5" width="32.4" height="32.6"/>
<rect x="96" y="404.8" class="st5" width="32.4" height="32.6"/>
<rect x="96" y="471.3" class="st5" width="32.4" height="32.6"/>
<rect x="96" y="536.5" class="st5" width="32.4" height="32.6"/>
<rect x="96" y="602.3" class="st5" width="32.4" height="32.6"/>
<rect x="96" y="668.3" class="st5" width="32.4" height="32.6"/>
<rect x="96" y="733.9" class="st5" width="32.4" height="32.6"/>
<rect x="96" y="799.7" class="st5" width="32.4" height="32.6"/>
<rect x="96" y="865.2" class="st5" width="32.4" height="32.6"/>
<rect x="96" y="930.9" class="st5" width="32.4" height="32.6"/>
<rect x="96.4" y="10.7" class="st5" width="32.4" height="32.6"/>
</svg>
